<svg width="62" height="20" viewBox="0 0 62 20" fill="none" xmlns="http://www.w3.org/2000/svg">
<path d="M6.22511 0.956589C7.28112 0.975446 8.20513 1.22059 8.99714 1.69202C9.78915 2.16346 10.3926 2.79518 10.8074 3.58718C11.2412 4.37919 11.458 5.27491 11.458 6.27435C11.458 7.00978 11.3166 7.70751 11.0337 8.36751C10.7697 9.00866 10.402 9.58381 9.93058 10.093C10.6094 10.6021 11.1374 11.2338 11.5146 11.9881C11.9106 12.7424 12.1086 13.5721 12.1086 14.4773C12.1086 15.439 11.8729 16.3253 11.4014 17.1362C10.93 17.947 10.2983 18.5976 9.50629 19.0879C8.71428 19.5593 7.83741 19.795 6.87569 19.795H0.709351V0.956589H6.22511ZM3.19852 3.50232V9.10295H6.22511C6.99826 9.10295 7.64884 8.82951 8.17684 8.28265C8.70485 7.73579 8.96885 7.06636 8.96885 6.27435C8.96885 5.48234 8.70485 4.82234 8.17684 4.29433C7.6677 3.76633 7.01712 3.50232 6.22511 3.50232H3.19852ZM3.19852 11.6487V17.2493H6.87569C7.64884 17.2493 8.29942 16.9853 8.82742 16.4573C9.35543 15.9104 9.61943 15.2504 9.61943 14.4773C9.61943 13.6853 9.35543 13.0158 8.82742 12.469C8.29942 11.9221 7.64884 11.6487 6.87569 11.6487H3.19852Z" fill="#0065FC"/>
<path d="M21.5325 19.9365C20.5707 19.9365 19.6562 19.7479 18.7887 19.3708C17.9213 18.9936 17.1576 18.475 16.4976 17.815C15.8376 17.155 15.319 16.3913 14.9418 15.5239C14.5647 14.6564 14.3761 13.7418 14.3761 12.7801C14.3761 11.7995 14.5647 10.8661 14.9418 9.97981C15.319 9.09352 15.8376 8.32037 16.4976 7.66036C17.1576 7.00036 17.9213 6.49121 18.7887 6.13292C19.6562 5.75577 20.5707 5.5672 21.5325 5.5672C22.513 5.5672 23.4465 5.75577 24.3328 6.13292C25.2191 6.49121 25.9922 7.00036 26.6522 7.66036C27.3122 8.32037 27.8214 9.09352 28.1797 9.97981C28.5568 10.8661 28.7454 11.7995 28.7454 12.7801C28.7454 13.7418 28.5568 14.6564 28.1797 15.5239C27.8214 16.3913 27.3122 17.155 26.6522 17.815C25.9922 18.475 25.2191 18.9936 24.3328 19.3708C23.4465 19.7479 22.513 19.9365 21.5325 19.9365ZM21.5325 8.08465C20.269 8.08465 19.1847 8.53723 18.2796 9.44238C17.8459 9.8761 17.5064 10.3852 17.2613 10.9698C17.0161 11.5544 16.8936 12.1578 16.8936 12.7801C16.8936 13.4024 17.0161 13.9964 17.2613 14.5621C17.5064 15.1279 17.8459 15.6276 18.2796 16.0613C18.7133 16.495 19.2036 16.8344 19.7504 17.0796C20.3162 17.3247 20.9102 17.4473 21.5325 17.4473C22.1548 17.4473 22.7582 17.3247 23.3428 17.0796C23.9273 16.8344 24.4271 16.495 24.8419 16.0613C25.2568 15.6276 25.5868 15.1279 25.8319 14.5621C26.0771 13.9964 26.1996 13.4024 26.1996 12.7801C26.1996 12.1578 26.0771 11.5544 25.8319 10.9698C25.5868 10.3852 25.2568 9.8761 24.8419 9.44238C24.4271 9.00866 23.9273 8.67866 23.3428 8.45237C22.777 8.20722 22.1736 8.08465 21.5325 8.08465Z" fill="#0065FC"/>
<path d="M37.6091 19.9365C36.6473 19.9365 35.7328 19.7479 34.8653 19.3708C33.9979 18.9936 33.2342 18.475 32.5742 17.815C31.9141 17.155 31.3956 16.3913 31.0184 15.5239C30.6413 14.6564 30.4527 13.7418 30.4527 12.7801C30.4527 11.7995 30.6413 10.8661 31.0184 9.97981C31.3956 9.09352 31.9141 8.32037 32.5742 7.66036C33.2342 7.00036 33.9979 6.49121 34.8653 6.13292C35.7328 5.75577 36.6473 5.5672 37.6091 5.5672C38.5896 5.5672 39.5231 5.75577 40.4094 6.13292C41.2957 6.49121 42.0688 7.00036 42.7288 7.66036C43.3888 8.32037 43.898 9.09352 44.2563 9.97981C44.6334 10.8661 44.822 11.7995 44.822 12.7801C44.822 13.7418 44.6334 14.6564 44.2563 15.5239C43.898 16.3913 43.3888 17.155 42.7288 17.815C42.0688 18.475 41.2957 18.9936 40.4094 19.3708C39.5231 19.7479 38.5896 19.9365 37.6091 19.9365ZM37.6091 8.08465C36.3456 8.08465 35.2613 8.53723 34.3562 9.44238C33.9224 9.8761 33.583 10.3852 33.3379 10.9698C33.0927 11.5544 32.9702 12.1578 32.9702 12.7801C32.9702 13.4024 33.0927 13.9964 33.3379 14.5621C33.583 15.1279 33.9224 15.6276 34.3562 16.0613C34.7899 16.495 35.2802 16.8344 35.827 17.0796C36.3928 17.3247 36.9868 17.4473 37.6091 17.4473C38.2313 17.4473 38.8348 17.3247 39.4194 17.0796C40.0039 16.8344 40.5036 16.495 40.9185 16.0613C41.3334 15.6276 41.6634 15.1279 41.9085 14.5621C42.1537 13.9964 42.2762 13.4024 42.2762 12.7801C42.2762 12.1578 42.1537 11.5544 41.9085 10.9698C41.6634 10.3852 41.3334 9.8761 40.9185 9.44238C40.5036 9.00866 40.0039 8.67866 39.4194 8.45237C38.8536 8.20722 38.2502 8.08465 37.6091 8.08465Z" fill="#0065FC"/>
<path d="M54.1533 19.795L49.8538 14.5621V19.795H47.3646V0.984874H49.8538V9.10295L53.7007 5.48234H57.4061L50.7024 11.7053L57.4344 19.795H54.1533Z" fill="#0065FC"/>
<path d="M60.4332 3.61547C60.0749 3.61547 59.7637 3.4929 59.4997 3.24775C59.2546 2.98375 59.132 2.6726 59.132 2.31431C59.132 1.95603 59.2546 1.65431 59.4997 1.40916C59.7637 1.14516 60.0749 1.01316 60.4332 1.01316C60.7915 1.01316 61.0932 1.14516 61.3383 1.40916C61.6023 1.65431 61.7343 1.95603 61.7343 2.31431C61.7343 2.6726 61.6023 2.98375 61.3383 3.24775C61.0932 3.4929 60.7915 3.61547 60.4332 3.61547ZM59.2734 19.795V5.65206H61.6495V19.795H59.2734Z" fill="#0065FC"/>
<path d="M39.1025 10.9557C39.1025 11.7545 38.4549 12.4021 37.656 12.4021C36.8572 12.4021 36.2096 11.7545 36.2096 10.9557C36.2096 10.1568 36.8572 9.50925 37.656 9.50925C38.4549 9.50925 39.1025 10.1568 39.1025 10.9557Z" fill="#0065FC"/>
<path d="M36.2096 15.6164L36.9079 10.4735H38.504L39.1025 15.6164H36.2096Z" fill="#0065FC"/>
</svg>
